<svg width="24" height="24" viewBox="0 0 24 24" fill="none" xmlns="http://www.w3.org/2000/svg">
<path d="M12 0.625C5.71836 0.625 0.625 5.71836 0.625 12C0.625 18.2816 5.71836 23.375 12 23.375C18.2816 23.375 23.375 18.2816 23.375 12C23.375 5.71836 18.2816 0.625 12 0.625ZM15.9279 12.165L9.68184 16.6846C9.54727 16.7811 9.35938 16.6846 9.35938 16.5195V15.3287C9.35938 15.0697 9.48379 14.8234 9.69453 14.6711L13.3863 12L9.69453 9.32891C9.48379 9.17656 9.35938 8.93281 9.35938 8.67129V7.48047C9.35938 7.31543 9.54727 7.21895 9.68184 7.31543L15.9279 11.835C16.0396 11.9162 16.0396 12.0838 15.9279 12.165Z" fill="black"/>
</svg>
