<svg width="12" height="18" viewBox="0 0 12 18" fill="none" xmlns="http://www.w3.org/2000/svg">
<path d="M11.9688 2.11642V0.3047C11.9688 0.147669 11.7883 0.0609504 11.6664 0.157044L1.10078 8.40939C1.01101 8.4792 0.938376 8.56859 0.88841 8.67075C0.838444 8.7729 0.812469 8.88512 0.812469 8.99884C0.812469 9.11256 0.838444 9.22478 0.88841 9.32693C0.938376 9.42909 1.01101 9.51848 1.10078 9.58829L11.6664 17.8406C11.7906 17.9367 11.9688 17.85 11.9688 17.693V15.8813C11.9688 15.7664 11.9148 15.6563 11.8258 15.586L3.38828 9.00001L11.8258 2.41173C11.9148 2.34142 11.9688 2.23126 11.9688 2.11642Z" fill="black"/>
</svg>
