<svg width="22" height="22" viewBox="0 0 22 22" fill="none" xmlns="http://www.w3.org/2000/svg">
<path fill-rule="evenodd" clip-rule="evenodd" d="M11.0896 5.52612C11.2628 5.52612 11.4288 5.59492 11.5513 5.71738C11.6738 5.83984 11.7426 6.00593 11.7426 6.17911V11.403C11.7426 11.5762 11.6738 11.7423 11.5513 11.8647C11.4288 11.9872 11.2628 12.056 11.0896 12.056H5.86569C5.69251 12.056 5.52642 11.9872 5.40396 11.8647C5.2815 11.7423 5.21271 11.5762 5.21271 11.403C5.21271 11.2298 5.2815 11.0637 5.40396 10.9413C5.52642 10.8188 5.69251 10.75 5.86569 10.75H10.4366V6.17911C10.4366 6.00593 10.5054 5.83984 10.6278 5.71738C10.7503 5.59492 10.9164 5.52612 11.0896 5.52612Z" fill="#C8161D"/>
<path fill-rule="evenodd" clip-rule="evenodd" d="M10.4366 11.403C10.4366 11.2298 10.5054 11.0637 10.6278 10.9413C10.7503 10.8188 10.9164 10.75 11.0896 10.75H16.3134C16.4866 10.75 16.6527 10.8188 16.7752 10.9413C16.8976 11.0637 16.9664 11.2298 16.9664 11.403C16.9664 11.5762 16.8976 11.7423 16.7752 11.8647C16.6527 11.9872 16.4866 12.056 16.3134 12.056H11.7426V16.6269C11.7426 16.8 11.6738 16.9661 11.5513 17.0886C11.4288 17.2111 11.2628 17.2798 11.0896 17.2798C10.9164 17.2798 10.7503 17.2111 10.6278 17.0886C10.5054 16.9661 10.4366 16.8 10.4366 16.6269V11.403Z" fill="#C8161D"/>
<rect x="1.14178" y="1.45523" width="19.8955" height="19.8955" stroke="white"/>
</svg>
