<svg width="24" height="24" viewBox="0 0 24 24" fill="none" xmlns="http://www.w3.org/2000/svg">
<path d="M16.5 0.498994H23.5C23.6326 0.498994 23.7598 0.551672 23.8536 0.64544C23.9473 0.739208 24 0.866385 24 0.998994V12.999C24 13.1316 23.9473 13.2588 23.8536 13.3525C23.7598 13.4463 23.6326 13.499 23.5 13.499H16.5C16.3674 13.499 16.2402 13.4463 16.1464 13.3525C16.0527 13.2588 16 13.1316 16 12.999V0.998994C16 0.866385 16.0527 0.739208 16.1464 0.64544C16.2402 0.551672 16.3674 0.498994 16.5 0.498994ZM23 1.49899H17V12.499H23V1.49899Z" fill="black"/>
<path d="M4.25005 1.49899H13.5C14.425 1.49899 16.105 1.89699 16.854 2.64499C16.9451 2.73929 16.9955 2.86559 16.9944 2.99669C16.9932 3.12779 16.9407 3.2532 16.848 3.3459C16.7553 3.43861 16.6298 3.49119 16.4987 3.49233C16.3676 3.49347 16.2413 3.44307 16.147 3.35199C15.674 2.87899 14.313 2.49799 13.501 2.49799H4.25105C3.56205 2.49799 3.00105 3.05899 3.00105 3.74799C3.00105 4.09199 3.14105 4.41399 3.39605 4.65499C3.46531 4.72025 3.51446 4.80396 3.53772 4.89623C3.56097 4.98851 3.55735 5.08551 3.52729 5.1758C3.49723 5.26609 3.44198 5.3459 3.36805 5.40582C3.29412 5.46574 3.2046 5.50327 3.11005 5.51399C2.80583 5.54806 2.52472 5.69265 2.3201 5.92032C2.11547 6.14799 2.00158 6.44288 2.00005 6.74899C2.00005 7.09299 2.14005 7.41499 2.39505 7.65599C2.46431 7.72125 2.51346 7.80496 2.53671 7.89723C2.55997 7.98951 2.55635 8.08651 2.52629 8.1768C2.49623 8.26709 2.44098 8.3469 2.36705 8.40682C2.29312 8.46674 2.2036 8.50428 2.10905 8.51499C1.80501 8.54884 1.52403 8.69327 1.31955 8.9208C1.11507 9.14833 1.00136 9.44308 1.00005 9.74899C1.00005 10.215 1.26205 10.639 1.68405 10.855C1.76357 10.8948 1.83094 10.9553 1.87914 11.03C1.92734 11.1048 1.9546 11.1911 1.95807 11.2799C1.96154 11.3688 1.9411 11.457 1.89889 11.5353C1.85667 11.6136 1.79422 11.6791 1.71805 11.725C1.26905 12.003 1.00005 12.479 1.00005 12.999C1.00005 13.826 1.67305 14.499 2.50005 14.499H9.50005C9.58083 14.4994 9.66033 14.5193 9.73179 14.557C9.80324 14.5947 9.86454 14.6491 9.91048 14.7155C9.95642 14.782 9.98564 14.8585 9.99566 14.9387C10.0057 15.0189 9.99621 15.1003 9.96805 15.176C9.95805 15.203 9.00005 17.74 9.00005 19.499C9.00005 21.136 10.452 22.499 11 22.499C11.431 22.499 11.792 22.342 12 22.227V18.999C12.0001 18.9268 12.0158 18.8555 12.046 18.79L15.046 12.29C15.0939 12.1871 15.1749 12.1033 15.276 12.052L16.276 11.552C16.3348 11.5226 16.3988 11.5052 16.4643 11.5005C16.5298 11.4959 16.5956 11.5042 16.6579 11.525C16.7202 11.5458 16.7778 11.5787 16.8275 11.6218C16.8771 11.6648 16.9177 11.7172 16.947 11.776C16.9764 11.8348 16.9939 11.8987 16.9985 11.9643C17.0031 12.0298 16.9948 12.0956 16.974 12.1579C16.9532 12.2202 16.9203 12.2778 16.8773 12.3274C16.8342 12.377 16.7818 12.4176 16.723 12.447L15.88 12.868L13 19.109V22.499C13 22.651 12.931 22.794 12.812 22.89C12.2863 23.277 11.6528 23.4899 11 23.499C9.84305 23.499 8.00005 21.668 8.00005 19.499C8.00005 18.131 8.49005 16.428 8.79505 15.499H2.50005C1.12205 15.499 4.76837e-05 14.377 4.76837e-05 12.999C4.76837e-05 12.368 0.235046 11.776 0.650047 11.324C0.239048 10.911 4.76837e-05 10.35 4.76837e-05 9.74899C0.000398636 9.33394 0.11606 8.92714 0.334133 8.57399C0.552206 8.22083 0.864111 7.93521 1.23505 7.74899C0.970905 7.21838 0.927834 6.60471 1.11527 6.0424C1.3027 5.48009 1.70537 5.015 2.23505 4.74899C2.06575 4.40591 1.9866 4.02536 2.00507 3.64323C2.02354 3.26109 2.13901 2.88995 2.34061 2.56479C2.54221 2.23963 2.82329 1.97117 3.15735 1.7847C3.49142 1.59823 3.86747 1.49991 4.25005 1.49899Z" fill="black"/>
</svg>
